<svg width="212" height="188" xmlns="http://www.w3.org/2000/svg">

 <g>
  <title>Layer 1</title>
  <path id="svg_1" d="m106,188.00001a5.99681,5.99681 0 0 1 -2.93164,-0.765a315.04431,315.04431 0 0 1 -51.082,-37.27527c-34.49608,-31.04591 -51.98636,-61.98567 -51.98636,-91.95973a58.01662,58.01662 0 0 1 106,-32.59509a58.01662,58.01662 0 0 1 106,32.59509c0,29.97406 -17.49024,60.91382 -51.98633,91.95972a315.04479,315.04479 0 0 1 -51.082,37.27527a5.99681,5.99681 0 0 1 -2.93167,0.76501zm-48,-176a46.05223,46.05223 0 0 0 -46,46c0,57.3255 77.78613,107.25671 94,117.03735c16.21387,-9.78064 94,-59.71185 94,-117.03735a46.00872,46.00872 0 0 0 -88.46387,-17.72156a6,6 0 0 1 -11.07226,0a45.90889,45.90889 0 0 0 -42.46387,-28.27844z"/>
 </g>
</svg>